STARTFONT 2.1
FONT -gnu-Unifont-Medium-R-Normal-Sans-16-160-75-75-c-80-iso10646-1
SIZE 16 75 75
FONTBOUNDINGBOX 16 16 0 -2
STARTPROPERTIES 24
PIXEL_SIZE 16
POINT_SIZE 160
RESOLUTION_X 75
RESOLUTION_Y 75
AVERAGE_WIDTH 80
UNDERLINE_POSITION -2
UNDERLINE_THICKNESS 1
CAP_HEIGHT 10
X_HEIGHT 8
FONT_ASCENT 14
FONT_DESCENT 2
DEFAULT_CHAR 256
ENDPROPERTIES
CHARS 256
STARTCHAR U+0000
ENCODING 0
SWIDTH 1000 0
DWIDTH 16 0
BBX 16 16 0 -2
BITMAP 
AAAA
0001
8000
0001
8000
4A51
EA50
5A51
C99E
0001
8000
0001
8000
0001
8000
5555
ENDCHAR
STARTCHAR U+0001
ENCODING 1
SWIDTH 1000 0
DWIDTH 16 0
BBX 16 16 0 -2
BITMAP 
AAAA
0001
8000
0001
8000
3993
C252
325F
8A52
7193
8000
0001
8000
0001
8000
5555
ENDCHAR
STARTCHAR U+0002
ENCODING 2
SWIDTH 1000 0
DWIDTH 16 0
BBX 16 16 0 -2
BITMAP 
AAAA
0001
8000
0001
8000
3BA5
C124
3119
8924
7125
8000
0001
8000
0001
8000
5555
ENDCHAR
STARTCHAR U+0003
ENCODING 3
SWIDTH 1000 0
DWIDTH 16 0
BBX 16 16 0 -2
BITMAP 
AAAA
0001
8000
0001
8000
7BA5
C124
7919
C124
7925
8000
0001
8000
0001
8000
5555
ENDCHAR
STARTCHAR U+0004
ENCODING 4
SWIDTH 1000 0
DWIDTH 16 0
BBX 16 16 0 -2
BITMAP 
AAAA
0001
8000
0001
8000
79BF
C248
7A49
C248
7989
8000
0001
8000
0001
8000
5555
ENDCHAR
STARTCHAR U+0005
ENCODING 5
SWIDTH 1000 0
DWIDTH 16 0
BBX 16 16 0 -2
BITMAP 
AAAA
0001
8000
0001
8000
7A4D
C252
7B53
C2D6
7A4F
8000
0001
8000
0001
8000
5555
ENDCHAR
STARTCHAR U+0006
ENCODING 6
SWIDTH 1000 0
DWIDTH 16 0
BBX 16 16 0 -2
BITMAP 
AAAA
0001
8000
0001
8000
31A5
CA28
7A31
CA28
49A5
8000
0001
8000
0001
8000
5555
ENDCHAR
STARTCHAR U+0007
ENCODING 7
SWIDTH 1000 0
DWIDTH 16 0
BBX 16 16 0 -2
BITMAP 
AAAA
0001
8000
0001
8000
73D1
CA10
73D1
CA10
73DF
8000
0001
8000
0001
8000
5555
ENDCHAR
STARTCHAR U+0008
ENCODING 8
SWIDTH 1000 0
DWIDTH 16 0
BBX 16 16 0 -2
BITMAP 
AAAA
0001
8000
0001
8000
1E39
9140
1E31
9108
1E71
8000
0001
8000
0001
8000
5555
ENDCHAR
STARTCHAR U+0009
ENCODING 9
SWIDTH 1000 0
DWIDTH 16 0
BBX 16 16 0 -2
BITMAP 
AAAA
0001
8000
0001
8000
22F9
A220
3E21
A220
2221
8000
0001
8000
0001
8000
5555
ENDCHAR
STARTCHAR U+000A
ENCODING 10
SWIDTH 1000 0
DWIDTH 16 0
BBX 16 16 0 -2
BITMAP 
AAAA
0001
8000
0001
8000
20F9
A080
20F9
A080
3E81
8000
0001
8000
0001
8000
5555
ENDCHAR
STARTCHAR U+000B
ENCODING 11
SWIDTH 1000 0
DWIDTH 16 0
BBX 16 16 0 -2
BITMAP 
AAAA
0001
8000
0001
8000
22F9
A220
2221
9420
0821
8000
0001
8000
0001
8000
5555
ENDCHAR
STARTCHAR U+000C
ENCODING 12
SWIDTH 1000 0
DWIDTH 16 0
BBX 16 16 0 -2
BITMAP 
AAAA
0001
8000
0001
8000
3EF9
A080
3EF9
A080
2081
8000
0001
8000
0001
8000
5555
ENDCHAR
STARTCHAR U+000D
ENCODING 13
SWIDTH 1000 0
DWIDTH 16 0
BBX 16 16 0 -2
BITMAP 
AAAA
0001
8000
0001
8000
1EF1
A088
20F1
A090
1E89
8000
0001
8000
0001
8000
5555
ENDCHAR
STARTCHAR U+000E
ENCODING 14
SWIDTH 1000 0
DWIDTH 16 0
BBX 16 16 0 -2
BITMAP 
AAAA
0001
8000
0001
8000
1E71
A088
1C89
8288
3C71
8000
0001
8000
0001
8000
5555
ENDCHAR
STARTCHAR U+000F
ENCODING 15
SWIDTH 1000 0
DWIDTH 16 0
BBX 16 16 0 -2
BITMAP 
AAAA
0001
8000
0001
8000
1EF9
A020
1C21
8220
3CF9
8000
0001
8000
0001
8000
5555
ENDCHAR
STARTCHAR U+0010
ENCODING 16
SWIDTH 1000 0
DWIDTH 16 0
BBX 16 16 0 -2
BITMAP 
AAAA
0001
8000
0001
8000
391D
A510
251D
A510
39DD
8000
0001
8000
0001
8000
5555
ENDCHAR
STARTCHAR U+0011
ENCODING 17
SWIDTH 1000 0
DWIDTH 16 0
BBX 16 16 0 -2
BITMAP 
AAAA
0001
8000
0001
8000
7189
CA18
4A09
CA08
719D
8000
0001
8000
0001
8000
5555
ENDCHAR
STARTCHAR U+0012
ENCODING 18
SWIDTH 1000 0
DWIDTH 16 0
BBX 16 16 0 -2
BITMAP 
AAAA
0001
8000
0001
8000
7199
CA04
4A09
CA10
719D
8000
0001
8000
0001
8000
5555
ENDCHAR
STARTCHAR U+0013
ENCODING 19
SWIDTH 1000 0
DWIDTH 16 0
BBX 16 16 0 -2
BITMAP 
AAAA
0001
8000
0001
8000
7199
CA04
4A19
CA04
7199
8000
0001
8000
0001
8000
5555
ENDCHAR
STARTCHAR U+0014
ENCODING 20
SWIDTH 1000 0
DWIDTH 16 0
BBX 16 16 0 -2
BITMAP 
AAAA
0001
8000
0001
8000
7185
CA0C
4A15
CA1C
7185
8000
0001
8000
0001
8000
5555
ENDCHAR
STARTCHAR U+0015
ENCODING 21
SWIDTH 1000 0
DWIDTH 16 0
BBX 16 16 0 -2
BITMAP 
AAAA
0001
8000
0001
8000
4993
EA54
6A59
DBD4
4A53
8000
0001
8000
0001
8000
5555
ENDCHAR
STARTCHAR U+0016
ENCODING 22
SWIDTH 1000 0
DWIDTH 16 0
BBX 16 16 0 -2
BITMAP 
AAAA
0001
8000
0001
8000
3453
C29A
3117
8912
7113
8000
0001
8000
0001
8000
5555
ENDCHAR
STARTCHAR U+0017
ENCODING 23
SWIDTH 1000 0
DWIDTH 16 0
BBX 16 16 0 -2
BITMAP 
AAAA
0001
8000
0001
8000
7BB9
C124
7939
C124
7939
8000
0001
8000
0001
8000
5555
ENDCHAR
STARTCHAR U+0018
ENCODING 24
SWIDTH 1000 0
DWIDTH 16 0
BBX 16 16 0 -2
BITMAP 
AAAA
0001
8000
0001
8000
3325
C4B4
47AD
C4A4
34A5
8000
0001
8000
0001
8000
5555
ENDCHAR
STARTCHAR U+0019
ENCODING 25
SWIDTH 1000 0
DWIDTH 16 0
BBX 16 16 0 -2
BITMAP 
AAAA
0001
8000
0001
8000
3E89
A0D8
3EA9
A088
3E89
8000
0001
8000
0001
8000
5555
ENDCHAR
STARTCHAR U+001A
ENCODING 26
SWIDTH 1000 0
DWIDTH 16 0
BBX 16 16 0 -2
BITMAP 
AAAA
0001
8000
0001
8000
3A5D
C252
325D
8A52
719D
8000
0001
8000
0001
8000
5555
ENDCHAR
STARTCHAR U+001B
ENCODING 27
SWIDTH 1000 0
DWIDTH 16 0
BBX 16 16 0 -2
BITMAP 
AAAA
0001
8000
0001
8000
79CF
C210
7991
C050
7B8F
8000
0001
8000
0001
8000
5555
ENDCHAR
STARTCHAR U+001C
ENCODING 28
SWIDTH 1000 0
DWIDTH 16 0
BBX 16 16 0 -2
BITMAP 
AAAA
0001
8000
0001
8000
1E71
9080
1E61
9010
10E1
8000
0001
8000
0001
8000
5555
ENDCHAR
STARTCHAR U+001D
ENCODING 29
SWIDTH 1000 0
DWIDTH 16 0
BBX 16 16 0 -2
BITMAP 
AAAA
0001
8000
0001
8000
0E71
9080
1661
9210
0EE1
8000
0001
8000
0001
8000
5555
ENDCHAR
STARTCHAR U+001E
ENCODING 30
SWIDTH 1000 0
DWIDTH 16 0
BBX 16 16 0 -2
BITMAP 
AAAA
0001
8000
0001
8000
1C71
9280
1C61
9410
12E1
8000
0001
8000
0001
8000
5555
ENDCHAR
STARTCHAR U+001F
ENCODING 31
SWIDTH 1000 0
DWIDTH 16 0
BBX 16 16 0 -2
BITMAP 
AAAA
0001
8000
0001
8000
1271
9280
1261
9210
0CE1
8000
0001
8000
0001
8000
5555
ENDCHAR
STARTCHAR U+0020
ENCODING 32
SWIDTH 500 0
DWIDTH 8 0
BBX 8 16 0 -2
BITMAP 
00
00
00
00
00
00
00
00
00
00
00
00
00
00
00
00
ENDCHAR
STARTCHAR U+0021
ENCODING 33
SWIDTH 500 0
DWIDTH 8 0
BBX 8 16 0 -2
BITMAP 
00
00
00
00
08
08
08
08
08
08
08
00
08
08
00
00
ENDCHAR
STARTCHAR U+0022
ENCODING 34
SWIDTH 500 0
DWIDTH 8 0
BBX 8 16 0 -2
BITMAP 
00
00
22
22
22
22
00
00
00
00
00
00
00
00
00
00
ENDCHAR
STARTCHAR U+0023
ENCODING 35
SWIDTH 500 0
DWIDTH 8 0
BBX 8 16 0 -2
BITMAP 
00
00
00
00
12
12
12
7E
24
24
7E
48
48
48
00
00
ENDCHAR
STARTCHAR U+0024
ENCODING 36
SWIDTH 500 0
DWIDTH 8 0
BBX 8 16 0 -2
BITMAP 
00
00
00
00
08
3E
49
48
38
0E
09
49
3E
08
00
00
ENDCHAR
STARTCHAR U+0025
ENCODING 37
SWIDTH 500 0
DWIDTH 8 0
BBX 8 16 0 -2
BITMAP 
00
00
00
00
31
4A
4A
34
08
08
16
29
29
46
00
00
ENDCHAR
STARTCHAR U+0026
ENCODING 38
SWIDTH 500 0
DWIDTH 8 0
BBX 8 16 0 -2
BITMAP 
00
00
00
00
1C
22
22
14
18
29
45
42
46
39
00
00
ENDCHAR
STARTCHAR U+0027
ENCODING 39
SWIDTH 500 0
DWIDTH 8 0
BBX 8 16 0 -2
BITMAP 
00
00
08
08
08
08
00
00
00
00
00
00
00
00
00
00
ENDCHAR
STARTCHAR U+0028
ENCODING 40
SWIDTH 500 0
DWIDTH 8 0
BBX 8 16 0 -2
BITMAP 
00
00
00
04
08
08
10
10
10
10
10
10
08
08
04
00
ENDCHAR
STARTCHAR U+0029
ENCODING 41
SWIDTH 500 0
DWIDTH 8 0
BBX 8 16 0 -2
BITMAP 
00
00
00
20
10
10
08
08
08
08
08
08
10
10
20
00
ENDCHAR
STARTCHAR U+002A
ENCODING 42
SWIDTH 500 0
DWIDTH 8 0
BBX 8 16 0 -2
BITMAP 
00
00
00
00
00
00
08
49
2A
1C
2A
49
08
00
00
00
ENDCHAR
STARTCHAR U+002B
ENCODING 43
SWIDTH 500 0
DWIDTH 8 0
BBX 8 16 0 -2
BITMAP 
00
00
00
00
00
00
08
08
08
7F
08
08
08
00
00
00
ENDCHAR
STARTCHAR U+002C
ENCODING 44
SWIDTH 500 0
DWIDTH 8 0
BBX 8 16 0 -2
BITMAP 
00
00
00
00
00
00
00
00
00
00
00
00
18
08
08
10
ENDCHAR
STARTCHAR U+002D
ENCODING 45
SWIDTH 500 0
DWIDTH 8 0
BBX 8 16 0 -2
BITMAP 
00
00
00
00
00
00
00
00
00
3C
00
00
00
00
00
00
ENDCHAR
STARTCHAR U+002E
ENCODING 46
SWIDTH 500 0
DWIDTH 8 0
BBX 8 16 0 -2
BITMAP 
00
00
00
00
00
00
00
00
00
00
00
00
18
18
00
00
ENDCHAR
STARTCHAR U+002F
ENCODING 47
SWIDTH 500 0
DWIDTH 8 0
BBX 8 16 0 -2
BITMAP 
00
00
00
00
02
02
04
08
08
10
10
20
40
40
00
00
ENDCHAR
STARTCHAR U+0030
ENCODING 48
SWIDTH 500 0
DWIDTH 8 0
BBX 8 16 0 -2
BITMAP 
00
00
00
00
18
24
42
46
4A
52
62
42
24
18
00
00
ENDCHAR
STARTCHAR U+0031
ENCODING 49
SWIDTH 500 0
DWIDTH 8 0
BBX 8 16 0 -2
BITMAP 
00
00
00
00
08
18
28
08
08
08
08
08
08
3E
00
00
ENDCHAR
STARTCHAR U+0032
ENCODING 50
SWIDTH 500 0
DWIDTH 8 0
BBX 8 16 0 -2
BITMAP 
00
00
00
00
3C
42
42
02
0C
10
20
40
40
7E
00
00
ENDCHAR
STARTCHAR U+0033
ENCODING 51
SWIDTH 500 0
DWIDTH 8 0
BBX 8 16 0 -2
BITMAP 
00
00
00
00
3C
42
42
02
1C
02
02
42
42
3C
00
00
ENDCHAR
STARTCHAR U+0034
ENCODING 52
SWIDTH 500 0
DWIDTH 8 0
BBX 8 16 0 -2
BITMAP 
00
00
00
00
04
0C
14
24
44
44
7E
04
04
04
00
00
ENDCHAR
STARTCHAR U+0035
ENCODING 53
SWIDTH 500 0
DWIDTH 8 0
BBX 8 16 0 -2
BITMAP 
00
00
00
00
7E
40
40
40
7C
02
02
02
42
3C
00
00
ENDCHAR
STARTCHAR U+0036
ENCODING 54
SWIDTH 500 0
DWIDTH 8 0
BBX 8 16 0 -2
BITMAP 
00
00
00
00
1C
20
40
40
7C
42
42
42
42
3C
00
00
ENDCHAR
STARTCHAR U+0037
ENCODING 55
SWIDTH 500 0
DWIDTH 8 0
BBX 8 16 0 -2
BITMAP 
00
00
00
00
7E
02
02
04
04
04
08
08
08
08
00
00
ENDCHAR
STARTCHAR U+0038
ENCODING 56
SWIDTH 500 0
DWIDTH 8 0
BBX 8 16 0 -2
BITMAP 
00
00
00
00
3C
42
42
42
3C
42
42
42
42
3C
00
00
ENDCHAR
STARTCHAR U+0039
ENCODING 57
SWIDTH 500 0
DWIDTH 8 0
BBX 8 16 0 -2
BITMAP 
00
00
00
00
3C
42
42
42
3E
02
02
02
04
38
00
00
ENDCHAR
STARTCHAR U+003A
ENCODING 58
SWIDTH 500 0
DWIDTH 8 0
BBX 8 16 0 -2
BITMAP 
00
00
00
00
00
00
18
18
00
00
00
18
18
00
00
00
ENDCHAR
STARTCHAR U+003B
ENCODING 59
SWIDTH 500 0
DWIDTH 8 0
BBX 8 16 0 -2
BITMAP 
00
00
00
00
00
00
18
18
00
00
00
18
08
08
10
00
ENDCHAR
STARTCHAR U+003C
ENCODING 60
SWIDTH 500 0
DWIDTH 8 0
BBX 8 16 0 -2
BITMAP 
00
00
00
00
00
02
04
08
10
20
10
08
04
02
00
00
ENDCHAR
STARTCHAR U+003D
ENCODING 61
SWIDTH 500 0
DWIDTH 8 0
BBX 8 16 0 -2
BITMAP 
00
00
00
00
00
00
00
7E
00
00
00
7E
00
00
00
00
ENDCHAR
STARTCHAR U+003E
ENCODING 62
SWIDTH 500 0
DWIDTH 8 0
BBX 8 16 0 -2
BITMAP 
00
00
00
00
00
40
20
10
08
04
08
10
20
40
00
00
ENDCHAR
STARTCHAR U+003F
ENCODING 63
SWIDTH 500 0
DWIDTH 8 0
BBX 8 16 0 -2
BITMAP 
00
00
00
00
3C
42
42
02
04
08
08
00
08
08
00
00
ENDCHAR
STARTCHAR U+0040
ENCODING 64
SWIDTH 500 0
DWIDTH 8 0
BBX 8 16 0 -2
BITMAP 
00
00
00
00
1C
22
4A
56
52
52
52
4E
20
1E
00
00
ENDCHAR
STARTCHAR U+0041
ENCODING 65
SWIDTH 500 0
DWIDTH 8 0
BBX 8 16 0 -2
BITMAP 
00
00
00
00
18
24
24
42
42
7E
42
42
42
42
00
00
ENDCHAR
STARTCHAR U+0042
ENCODING 66
SWIDTH 500 0
DWIDTH 8 0
BBX 8 16 0 -2
BITMAP 
00
00
00
00
7C
42
42
42
7C
42
42
42
42
7C
00
00
ENDCHAR
STARTCHAR U+0043
ENCODING 67
SWIDTH 500 0
DWIDTH 8 0
BBX 8 16 0 -2
BITMAP 
00
00
00
00
3C
42
42
40
40
40
40
42
42
3C
00
00
ENDCHAR
STARTCHAR U+0044
ENCODING 68
SWIDTH 500 0
DWIDTH 8 0
BBX 8 16 0 -2
BITMAP 
00
00
00
00
78
44
42
42
42
42
42
42
44
78
00
00
ENDCHAR
STARTCHAR U+0045
ENCODING 69
SWIDTH 500 0
DWIDTH 8 0
BBX 8 16 0 -2
BITMAP 
00
00
00
00
7E
40
40
40
7C
40
40
40
40
7E
00
00
ENDCHAR
STARTCHAR U+0046
ENCODING 70
SWIDTH 500 0
DWIDTH 8 0
BBX 8 16 0 -2
BITMAP 
00
00
00
00
7E
40
40
40
7C
40
40
40
40
40
00
00
ENDCHAR
STARTCHAR U+0047
ENCODING 71
SWIDTH 500 0
DWIDTH 8 0
BBX 8 16 0 -2
BITMAP 
00
00
00
00
3C
42
42
40
40
4E
42
42
46
3A
00
00
ENDCHAR
STARTCHAR U+0048
ENCODING 72
SWIDTH 500 0
DWIDTH 8 0
BBX 8 16 0 -2
BITMAP 
00
00
00
00
42
42
42
42
7E
42
42
42
42
42
00
00
ENDCHAR
STARTCHAR U+0049
ENCODING 73
SWIDTH 500 0
DWIDTH 8 0
BBX 8 16 0 -2
BITMAP 
00
00
00
00
3E
08
08
08
08
08
08
08
08
3E
00
00
ENDCHAR
STARTCHAR U+004A
ENCODING 74
SWIDTH 500 0
DWIDTH 8 0
BBX 8 16 0 -2
BITMAP 
00
00
00
00
1F
04
04
04
04
04
04
44
44
38
00
00
ENDCHAR
STARTCHAR U+004B
ENCODING 75
SWIDTH 500 0
DWIDTH 8 0
BBX 8 16 0 -2
BITMAP 
00
00
00
00
42
44
48
50
60
60
50
48
44
42
00
00
ENDCHAR
STARTCHAR U+004C
ENCODING 76
SWIDTH 500 0
DWIDTH 8 0
BBX 8 16 0 -2
BITMAP 
00
00
00
00
40
40
40
40
40
40
40
40
40
7E
00
00
ENDCHAR
STARTCHAR U+004D
ENCODING 77
SWIDTH 500 0
DWIDTH 8 0
BBX 8 16 0 -2
BITMAP 
00
00
00
00
42
42
66
66
5A
5A
42
42
42
42
00
00
ENDCHAR
STARTCHAR U+004E
ENCODING 78
SWIDTH 500 0
DWIDTH 8 0
BBX 8 16 0 -2
BITMAP 
00
00
00
00
42
62
62
52
52
4A
4A
46
46
42
00
00
ENDCHAR
STARTCHAR U+004F
ENCODING 79
SWIDTH 500 0
DWIDTH 8 0
BBX 8 16 0 -2
BITMAP 
00
00
00
00
3C
42
42
42
42
42
42
42
42
3C
00
00
ENDCHAR
STARTCHAR U+0050
ENCODING 80
SWIDTH 500 0
DWIDTH 8 0
BBX 8 16 0 -2
BITMAP 
00
00
00
00
7C
42
42
42
7C
40
40
40
40
40
00
00
ENDCHAR
STARTCHAR U+0051
ENCODING 81
SWIDTH 500 0
DWIDTH 8 0
BBX 8 16 0 -2
BITMAP 
00
00
00
00
3C
42
42
42
42
42
42
5A
66
3C
03
00
ENDCHAR
STARTCHAR U+0052
ENCODING 82
SWIDTH 500 0
DWIDTH 8 0
BBX 8 16 0 -2
BITMAP 
00
00
00
00
7C
42
42
42
7C
48
44
44
42
42
00
00
ENDCHAR
STARTCHAR U+0053
ENCODING 83
SWIDTH 500 0
DWIDTH 8 0
BBX 8 16 0 -2
BITMAP 
00
00
00
00
3C
42
42
40
30
0C
02
42
42
3C
00
00
ENDCHAR
STARTCHAR U+0054
ENCODING 84
SWIDTH 500 0
DWIDTH 8 0
BBX 8 16 0 -2
BITMAP 
00
00
00
00
7F
08
08
08
08
08
08
08
08
08
00
00
ENDCHAR
STARTCHAR U+0055
ENCODING 85
SWIDTH 500 0
DWIDTH 8 0
BBX 8 16 0 -2
BITMAP 
00
00
00
00
42
42
42
42
42
42
42
42
42
3C
00
00
ENDCHAR
STARTCHAR U+0056
ENCODING 86
SWIDTH 500 0
DWIDTH 8 0
BBX 8 16 0 -2
BITMAP 
00
00
00
00
41
41
41
22
22
22
14
14
08
08
00
00
ENDCHAR
STARTCHAR U+0057
ENCODING 87
SWIDTH 500 0
DWIDTH 8 0
BBX 8 16 0 -2
BITMAP 
00
00
00
00
42
42
42
42
5A
5A
66
66
42
42
00
00
ENDCHAR
STARTCHAR U+0058
ENCODING 88
SWIDTH 500 0
DWIDTH 8 0
BBX 8 16 0 -2
BITMAP 
00
00
00
00
42
42
24
24
18
18
24
24
42
42
00
00
ENDCHAR
STARTCHAR U+0059
ENCODING 89
SWIDTH 500 0
DWIDTH 8 0
BBX 8 16 0 -2
BITMAP 
00
00
00
00
41
41
22
22
14
08
08
08
08
08
00
00
ENDCHAR
STARTCHAR U+005A
ENCODING 90
SWIDTH 500 0
DWIDTH 8 0
BBX 8 16 0 -2
BITMAP 
00
00
00
00
7E
02
02
04
08
10
20
40
40
7E
00
00
ENDCHAR
STARTCHAR U+005B
ENCODING 91
SWIDTH 500 0
DWIDTH 8 0
BBX 8 16 0 -2
BITMAP 
00
00
00
0E
08
08
08
08
08
08
08
08
08
08
0E
00
ENDCHAR
STARTCHAR U+005C
ENCODING 92
SWIDTH 500 0
DWIDTH 8 0
BBX 8 16 0 -2
BITMAP 
00
00
00
00
40
40
20
10
10
08
08
04
02
02
00
00
ENDCHAR
STARTCHAR U+005D
ENCODING 93
SWIDTH 500 0
DWIDTH 8 0
BBX 8 16 0 -2
BITMAP 
00
00
00
70
10
10
10
10
10
10
10
10
10
10
70
00
ENDCHAR
STARTCHAR U+005E
ENCODING 94
SWIDTH 500 0
DWIDTH 8 0
BBX 8 16 0 -2
BITMAP 
00
00
18
24
42
00
00
00
00
00
00
00
00
00
00
00
ENDCHAR
STARTCHAR U+005F
ENCODING 95
SWIDTH 500 0
DWIDTH 8 0
BBX 8 16 0 -2
BITMAP 
00
00
00
00
00
00
00
00
00
00
00
00
00
00
7F
00
ENDCHAR
STARTCHAR U+0060
ENCODING 96
SWIDTH 500 0
DWIDTH 8 0
BBX 8 16 0 -2
BITMAP 
00
20
10
08
00
00
00
00
00
00
00
00
00
00
00
00
ENDCHAR
STARTCHAR U+0061
ENCODING 97
SWIDTH 500 0
DWIDTH 8 0
BBX 8 16 0 -2
BITMAP 
00
00
00
00
00
00
3C
42
02
3E
42
42
46
3A
00
00
ENDCHAR
STARTCHAR U+0062
ENCODING 98
SWIDTH 500 0
DWIDTH 8 0
BBX 8 16 0 -2
BITMAP 
00
00
00
40
40
40
5C
62
42
42
42
42
62
5C
00
00
ENDCHAR
STARTCHAR U+0063
ENCODING 99
SWIDTH 500 0
DWIDTH 8 0
BBX 8 16 0 -2
BITMAP 
00
00
00
00
00
00
3C
42
40
40
40
40
42
3C
00
00
ENDCHAR
STARTCHAR U+0064
ENCODING 100
SWIDTH 500 0
DWIDTH 8 0
BBX 8 16 0 -2
BITMAP 
00
00
00
02
02
02
3A
46
42
42
42
42
46
3A
00
00
ENDCHAR
STARTCHAR U+0065
ENCODING 101
SWIDTH 500 0
DWIDTH 8 0
BBX 8 16 0 -2
BITMAP 
00
00
00
00
00
00
3C
42
42
7E
40
40
42
3C
00
00
ENDCHAR
STARTCHAR U+0066
ENCODING 102
SWIDTH 500 0
DWIDTH 8 0
BBX 8 16 0 -2
BITMAP 
00
00
00
0C
10
10
10
7C
10
10
10
10
10
10
00
00
ENDCHAR
STARTCHAR U+0067
ENCODING 103
SWIDTH 500 0
DWIDTH 8 0
BBX 8 16 0 -2
BITMAP 
00
00
00
00
00
02
3A
44
44
44
38
20
3C
42
42
3C
ENDCHAR
STARTCHAR U+0068
ENCODING 104
SWIDTH 500 0
DWIDTH 8 0
BBX 8 16 0 -2
BITMAP 
00
00
00
40
40
40
5C
62
42
42
42
42
42
42
00
00
ENDCHAR
STARTCHAR U+0069
ENCODING 105
SWIDTH 500 0
DWIDTH 8 0
BBX 8 16 0 -2
BITMAP 
00
00
00
08
08
00
18
08
08
08
08
08
08
3E
00
00
ENDCHAR
STARTCHAR U+006A
ENCODING 106
SWIDTH 500 0
DWIDTH 8 0
BBX 8 16 0 -2
BITMAP 
00
00
00
04
04
00
0C
04
04
04
04
04
04
04
48
30
ENDCHAR
STARTCHAR U+006B
ENCODING 107
SWIDTH 500 0
DWIDTH 8 0
BBX 8 16 0 -2
BITMAP 
00
00
00
40
40
40
44
48
50
60
50
48
44
42
00
00
ENDCHAR
STARTCHAR U+006C
ENCODING 108
SWIDTH 500 0
DWIDTH 8 0
BBX 8 16 0 -2
BITMAP 
00
00
00
18
08
08
08
08
08
08
08
08
08
3E
00
00
ENDCHAR
STARTCHAR U+006D
ENCODING 109
SWIDTH 500 0
DWIDTH 8 0
BBX 8 16 0 -2
BITMAP 
00
00
00
00
00
00
76
49
49
49
49
49
49
49
00
00
ENDCHAR
STARTCHAR U+006E
ENCODING 110
SWIDTH 500 0
DWIDTH 8 0
BBX 8 16 0 -2
BITMAP 
00
00
00
00
00
00
5C
62
42
42
42
42
42
42
00
00
ENDCHAR
STARTCHAR U+006F
ENCODING 111
SWIDTH 500 0
DWIDTH 8 0
BBX 8 16 0 -2
BITMAP 
00
00
00
00
00
00
3C
42
42
42
42
42
42
3C
00
00
ENDCHAR
STARTCHAR U+0070
ENCODING 112
SWIDTH 500 0
DWIDTH 8 0
BBX 8 16 0 -2
BITMAP 
00
00
00
00
00
00
5C
62
42
42
42
42
62
5C
40
40
ENDCHAR
STARTCHAR U+0071
ENCODING 113
SWIDTH 500 0
DWIDTH 8 0
BBX 8 16 0 -2
BITMAP 
00
00
00
00
00
00
3A
46
42
42
42
42
46
3A
02
02
ENDCHAR
STARTCHAR U+0072
ENCODING 114
SWIDTH 500 0
DWIDTH 8 0
BBX 8 16 0 -2
BITMAP 
00
00
00
00
00
00
5C
62
42
40
40
40
40
40
00
00
ENDCHAR
STARTCHAR U+0073
ENCODING 115
SWIDTH 500 0
DWIDTH 8 0
BBX 8 16 0 -2
BITMAP 
00
00
00
00
00
00
3C
42
40
30
0C
02
42
3C
00
00
ENDCHAR
STARTCHAR U+0074
ENCODING 116
SWIDTH 500 0
DWIDTH 8 0
BBX 8 16 0 -2
BITMAP 
00
00
00
00
10
10
10
7C
10
10
10
10
10
0C
00
00
ENDCHAR
STARTCHAR U+0075
ENCODING 117
SWIDTH 500 0
DWIDTH 8 0
BBX 8 16 0 -2
BITMAP 
00
00
00
00
00
00
42
42
42
42
42
42
46
3A
00
00
ENDCHAR
STARTCHAR U+0076
ENCODING 118
SWIDTH 500 0
DWIDTH 8 0
BBX 8 16 0 -2
BITMAP 
00
00
00
00
00
00
42
42
42
24
24
24
18
18
00
00
ENDCHAR
STARTCHAR U+0077
ENCODING 119
SWIDTH 500 0
DWIDTH 8 0
BBX 8 16 0 -2
BITMAP 
00
00
00
00
00
00
41
49
49
49
49
49
49
36
00
00
ENDCHAR
STARTCHAR U+0078
ENCODING 120
SWIDTH 500 0
DWIDTH 8 0
BBX 8 16 0 -2
BITMAP 
00
00
00
00
00
00
42
42
24
18
18
24
42
42
00
00
ENDCHAR
STARTCHAR U+0079
ENCODING 121
SWIDTH 500 0
DWIDTH 8 0
BBX 8 16 0 -2
BITMAP 
00
00
00
00
00
00
42
42
42
42
42
26
1A
02
02
3C
ENDCHAR
STARTCHAR U+007A
ENCODING 122
SWIDTH 500 0
DWIDTH 8 0
BBX 8 16 0 -2
BITMAP 
00
00
00
00
00
00
7E
02
04
08
10
20
40
7E
00
00
ENDCHAR
STARTCHAR U+007B
ENCODING 123
SWIDTH 500 0
DWIDTH 8 0
BBX 8 16 0 -2
BITMAP 
00
00
00
0C
10
10
08
08
10
20
10
08
08
10
10
0C
ENDCHAR
STARTCHAR U+007C
ENCODING 124
SWIDTH 500 0
DWIDTH 8 0
BBX 8 16 0 -2
BITMAP 
00
00
08
08
08
08
08
08
08
08
08
08
08
08
08
08
ENDCHAR
STARTCHAR U+007D
ENCODING 125
SWIDTH 500 0
DWIDTH 8 0
BBX 8 16 0 -2
BITMAP 
00
00
00
30
08
08
10
10
08
04
08
10
10
08
08
30
ENDCHAR
STARTCHAR U+007E
ENCODING 126
SWIDTH 500 0
DWIDTH 8 0
BBX 8 16 0 -2
BITMAP 
00
00
00
31
49
46
00
00
00
00
00
00
00
00
00
00
ENDCHAR
STARTCHAR U+007F
ENCODING 127
SWIDTH 1000 0
DWIDTH 16 0
BBX 16 16 0 -2
BITMAP 
AAAA
0001
8000
0001
8000
73D1
CA10
4BD1
CA10
73DF
8000
0001
8000
0001
8000
5555
ENDCHAR
STARTCHAR U+0080
ENCODING 128
SWIDTH 1000 0
DWIDTH 16 0
BBX 16 16 0 -2
BITMAP 
AAAA
0001
8000
0001
8000
719D
CA52
73D3
C252
425D
8000
0001
8000
0001
8000
5555
ENDCHAR
STARTCHAR U+0081
ENCODING 129
SWIDTH 1000 0
DWIDTH 16 0
BBX 16 16 0 -2
BITMAP 
AAAA
0001
8000
0001
8000
499D
CA52
7A5D
CA50
4991
8000
0001
8000
0001
8000
5555
ENDCHAR
STARTCHAR U+0082
ENCODING 130
SWIDTH 1000 0
DWIDTH 16 0
BBX 16 16 0 -2
BITMAP 
AAAA
0001
8000
0001
8000
7393
CA52
739F
CA12
7213
8000
0001
8000
0001
8000
5555
ENDCHAR
STARTCHAR U+0083
ENCODING 131
SWIDTH 1000 0
DWIDTH 16 0
BBX 16 16 0 -2
BITMAP 
AAAA
0001
8000
0001
8000
4B93
EA52
5B9F
CA52
4B93
8000
0001
8000
0001
8000
5555
ENDCHAR
STARTCHAR U+0084
ENCODING 132
SWIDTH 1000 0
DWIDTH 16 0
BBX 16 16 0 -2
BITMAP 
AAAA
0001
8000
0001
8000
74B9
A6A4
25A5
A4A4
74B9
8000
0001
8000
0001
8000
5555
ENDCHAR
STARTCHAR U+0085
ENCODING 133
SWIDTH 1000 0
DWIDTH 16 0
BBX 16 16 0 -2
BITMAP 
AAAA
0001
8000
0001
8000
4BD1
EA10
5BD1
CA10
4BDF
8000
0001
8000
0001
8000
5555
ENDCHAR
STARTCHAR U+0086
ENCODING 134
SWIDTH 1000 0
DWIDTH 16 0
BBX 16 16 0 -2
BITMAP 
AAAA
0001
8000
0001
8000
39CD
C212
319F
8852
7393
8000
0001
8000
0001
8000
5555
ENDCHAR
STARTCHAR U+0087
ENCODING 135
SWIDTH 1000 0
DWIDTH 16 0
BBX 16 16 0 -2
BITMAP 
AAAA
0001
8000
0001
8000
79CD
C212
799F
C052
7B93
8000
0001
8000
0001
8000
5555
ENDCHAR
STARTCHAR U+0088
ENCODING 136
SWIDTH 1000 0
DWIDTH 16 0
BBX 16 16 0 -2
BITMAP 
AAAA
0001
8000
0001
8000
4B9D
C920
7919
C904
4939
8000
0001
8000
0001
8000
5555
ENDCHAR
STARTCHAR U+0089
ENCODING 137
SWIDTH 1000 0
DWIDTH 16 0
BBX 16 16 0 -2
BITMAP 
AAAA
0001
8000
0001
8000
25DD
A484
3C85
A484
2499
8000
0001
8000
0001
8000
5555
ENDCHAR
STARTCHAR U+008A
ENCODING 138
SWIDTH 1000 0
DWIDTH 16 0
BBX 16 16 0 -2
BITMAP 
AAAA
0001
8000
0001
8000
45CD
C490
4489
A884
1099
8000
0001
8000
0001
8000
5555
ENDCHAR
STARTCHAR U+008B
ENCODING 139
SWIDTH 1000 0
DWIDTH 16 0
BBX 16 16 0 -2
BITMAP 
AAAA
0001
8000
0001
8000
721D
CA12
7213
C212
43DD
8000
0001
8000
0001
8000
5555
ENDCHAR
STARTCHAR U+008C
ENCODING 140
SWIDTH 1000 0
DWIDTH 16 0
BBX 16 16 0 -2
BITMAP 
AAAA
0001
8000
0001
8000
7213
CA12
7213
C212
43CD
8000
0001
8000
0001
8000
5555
ENDCHAR
STARTCHAR U+008D
ENCODING 141
SWIDTH 1000 0
DWIDTH 16 0
BBX 16 16 0 -2
BITMAP 
AAAA
0001
8000
0001
8000
0E21
8920
0E21
8A20
0921
8000
0001
8000
0001
8000
5555
ENDCHAR
STARTCHAR U+008E
ENCODING 142
SWIDTH 1000 0
DWIDTH 16 0
BBX 16 16 0 -2
BITMAP 
AAAA
0001
8000
0001
8000
39DD
C202
318D
8850
739F
8000
0001
8000
0001
8000
5555
ENDCHAR
STARTCHAR U+008F
ENCODING 143
SWIDTH 1000 0
DWIDTH 16 0
BBX 16 16 0 -2
BITMAP 
AAAA
0001
8000
0001
8000
39DD
C202
318D
8842
739D
8000
0001
8000
0001
8000
5555
ENDCHAR
STARTCHAR U+0090
ENCODING 144
SWIDTH 1000 0
DWIDTH 16 0
BBX 16 16 0 -2
BITMAP 
AAAA
0001
8000
0001
8000
71CF
CA10
4A0D
CA02
71DD
8000
0001
8000
0001
8000
5555
ENDCHAR
STARTCHAR U+0091
ENCODING 145
SWIDTH 1000 0
DWIDTH 16 0
BBX 16 16 0 -2
BITMAP 
AAAA
0001
8000
0001
8000
7245
CA4C
7245
C244
418F
8000
0001
8000
0001
8000
5555
ENDCHAR
STARTCHAR U+0092
ENCODING 146
SWIDTH 1000 0
DWIDTH 16 0
BBX 16 16 0 -2
BITMAP 
AAAA
0001
8000
0001
8000
725D
CA42
724D
C250
419F
8000
0001
8000
0001
8000
5555
ENDCHAR
STARTCHAR U+0093
ENCODING 147
SWIDTH 1000 0
DWIDTH 16 0
BBX 16 16 0 -2
BITMAP 
AAAA
0001
8000
0001
8000
3B9D
C120
3119
8904
7139
8000
0001
8000
0001
8000
5555
ENDCHAR
STARTCHAR U+0094
ENCODING 148
SWIDTH 1000 0
DWIDTH 16 0
BBX 16 16 0 -2
BITMAP 
AAAA
0001
8000
0001
8000
39D3
C212
421F
C212
39D3
8000
0001
8000
0001
8000
5555
ENDCHAR
STARTCHAR U+0095
ENCODING 149
SWIDTH 1000 0
DWIDTH 16 0
BBX 16 16 0 -2
BITMAP 
AAAA
0001
8000
0001
8000
2289
B688
2AA9
A2D8
2289
8000
0001
8000
0001
8000
5555
ENDCHAR
STARTCHAR U+0096
ENCODING 150
SWIDTH 1000 0
DWIDTH 16 0
BBX 16 16 0 -2
BITMAP 
AAAA
0001
8000
0001
8000
3B8D
C252
339F
8A12
7213
8000
0001
8000
0001
8000
5555
ENDCHAR
STARTCHAR U+0097
ENCODING 151
SWIDTH 1000 0
DWIDTH 16 0
BBX 16 16 0 -2
BITMAP 
AAAA
0001
8000
0001
8000
7B8D
C252
7B9F
C212
7A13
8000
0001
8000
0001
8000
5555
ENDCHAR
STARTCHAR U+0098
ENCODING 152
SWIDTH 1000 0
DWIDTH 16 0
BBX 16 16 0 -2
BITMAP 
AAAA
0001
8000
0001
8000
398F
C250
324D
8A42
719D
8000
0001
8000
0001
8000
5555
ENDCHAR
STARTCHAR U+0099
ENCODING 153
SWIDTH 1000 0
DWIDTH 16 0
BBX 16 16 0 -2
BITMAP 
AAAA
0001
8000
0001
8000
339B
C422
25A3
94A2
639B
8000
0001
8000
0001
8000
5555
ENDCHAR
STARTCHAR U+009A
ENCODING 154
SWIDTH 1000 0
DWIDTH 16 0
BBX 16 16 0 -2
BITMAP 
AAAA
0001
8000
0001
8000
39DD
C208
3209
8A08
71DD
8000
0001
8000
0001
8000
5555
ENDCHAR
STARTCHAR U+009B
ENCODING 155
SWIDTH 1000 0
DWIDTH 16 0
BBX 16 16 0 -2
BITMAP 
AAAA
0001
8000
0001
8000
39DD
C208
4189
C048
3B9D
8000
0001
8000
0001
8000
5555
ENDCHAR
STARTCHAR U+009C
ENCODING 156
SWIDTH 1000 0
DWIDTH 16 0
BBX 16 16 0 -2
BITMAP 
AAAA
0001
8000
0001
8000
0EF9
9020
0C21
8220
1C21
8000
0001
8000
0001
8000
5555
ENDCHAR
STARTCHAR U+009D
ENCODING 157
SWIDTH 1000 0
DWIDTH 16 0
BBX 16 16 0 -2
BITMAP 
AAAA
0001
8000
0001
8000
31CF
CA10
4991
C850
338F
8000
0001
8000
0001
8000
5555
ENDCHAR
STARTCHAR U+009E
ENCODING 158
SWIDTH 1000 0
DWIDTH 16 0
BBX 16 16 0 -2
BITMAP 
AAAA
0001
8000
0001
8000
1C89
92D8
1CA9
9088
1089
8000
0001
8000
0001
8000
5555
ENDCHAR
STARTCHAR U+009F
ENCODING 159
SWIDTH 1000 0
DWIDTH 16 0
BBX 16 16 0 -2
BITMAP 
AAAA
0001
8000
0001
8000
338F
CA50
7B91
CA10
4A0F
8000
0001
8000
0001
8000
5555
ENDCHAR
STARTCHAR U+00A0
ENCODING 160
SWIDTH 500 0
DWIDTH 8 0
BBX 8 16 0 -2
BITMAP 
00
00
00
00
00
00
00
00
00
00
00
00
00
00
00
00
ENDCHAR
STARTCHAR U+00A1
ENCODING 161
SWIDTH 500 0
DWIDTH 8 0
BBX 8 16 0 -2
BITMAP 
00
00
00
00
08
08
00
08
08
08
08
08
08
08
00
00
ENDCHAR
STARTCHAR U+00A2
ENCODING 162
SWIDTH 500 0
DWIDTH 8 0
BBX 8 16 0 -2
BITMAP 
00
00
00
00
08
08
3E
49
48
48
49
3E
08
08
00
00
ENDCHAR
STARTCHAR U+00A3
ENCODING 163
SWIDTH 500 0
DWIDTH 8 0
BBX 8 16 0 -2
BITMAP 
00
00
00
00
0E
10
10
10
7C
10
10
10
3E
61
00
00
ENDCHAR
STARTCHAR U+00A4
ENCODING 164
SWIDTH 500 0
DWIDTH 8 0
BBX 8 16 0 -2
BITMAP 
00
00
00
00
00
42
3C
24
42
42
24
3C
42
00
00
00
ENDCHAR
STARTCHAR U+00A5
ENCODING 165
SWIDTH 500 0
DWIDTH 8 0
BBX 8 16 0 -2
BITMAP 
00
00
00
00
41
22
14
08
7F
08
7F
08
08
08
00
00
ENDCHAR
STARTCHAR U+00A6
ENCODING 166
SWIDTH 500 0
DWIDTH 8 0
BBX 8 16 0 -2
BITMAP 
00
00
00
00
08
08
08
08
00
00
08
08
08
08
00
00
ENDCHAR
STARTCHAR U+00A7
ENCODING 167
SWIDTH 500 0
DWIDTH 8 0
BBX 8 16 0 -2
BITMAP 
00
00
00
00
3C
42
40
3C
42
42
3C
02
42
3C
00
00
ENDCHAR
STARTCHAR U+00A8
ENCODING 168
SWIDTH 500 0
DWIDTH 8 0
BBX 8 16 0 -2
BITMAP 
24
24
00
00
00
00
00
00
00
00
00
00
00
00
00
00
ENDCHAR
STARTCHAR U+00A9
ENCODING 169
SWIDTH 500 0
DWIDTH 8 0
BBX 8 16 0 -2
BITMAP 
00
00
00
00
3C
42
99
A5
A1
A1
A5
99
42
3C
00
00
ENDCHAR
STARTCHAR U+00AA
ENCODING 170
SWIDTH 500 0
DWIDTH 8 0
BBX 8 16 0 -2
BITMAP 
00
00
1C
02
1E
22
1E
00
3E
00
00
00
00
00
00
00
ENDCHAR
STARTCHAR U+00AB
ENCODING 171
SWIDTH 500 0
DWIDTH 8 0
BBX 8 16 0 -2
BITMAP 
00
00
00
00
00
12
12
24
24
48
24
24
12
12
00
00
ENDCHAR
STARTCHAR U+00AC
ENCODING 172
SWIDTH 500 0
DWIDTH 8 0
BBX 8 16 0 -2
BITMAP 
00
00
00
00
00
00
00
00
00
00
7E
02
02
02
00
00
ENDCHAR
STARTCHAR U+00AD
ENCODING 173
SWIDTH 1000 0
DWIDTH 16 0
BBX 16 16 0 -2
BITMAP 
AAAA
0001
8000
3A63
C254
33C9
8A48
7249
8000
0001
8000
03C1
8000
0001
8000
5555
ENDCHAR
STARTCHAR U+00AE
ENCODING 174
SWIDTH 500 0
DWIDTH 8 0
BBX 8 16 0 -2
BITMAP 
00
00
00
00
3C
42
B9
A5
A5
B9
A9
A5
42
3C
00
00
ENDCHAR
STARTCHAR U+00AF
ENCODING 175
SWIDTH 500 0
DWIDTH 8 0
BBX 8 16 0 -2
BITMAP 
00
00
7E
00
00
00
00
00
00
00
00
00
00
00
00
00
ENDCHAR
STARTCHAR U+00B0
ENCODING 176
SWIDTH 500 0
DWIDTH 8 0
BBX 8 16 0 -2
BITMAP 
10
28
28
10
00
00
00
00
00
00
00
00
00
00
00
00
ENDCHAR
STARTCHAR U+00B1
ENCODING 177
SWIDTH 500 0
DWIDTH 8 0
BBX 8 16 0 -2
BITMAP 
00
00
00
00
08
08
08
7F
08
08
08
00
7F
00
00
00
ENDCHAR
STARTCHAR U+00B2
ENCODING 178
SWIDTH 500 0
DWIDTH 8 0
BBX 8 16 0 -2
BITMAP 
00
00
1C
22
02
1C
20
20
3E
00
00
00
00
00
00
00
ENDCHAR
STARTCHAR U+00B3
ENCODING 179
SWIDTH 500 0
DWIDTH 8 0
BBX 8 16 0 -2
BITMAP 
00
00
1C
22
02
1C
02
22
1C
00
00
00
00
00
00
00
ENDCHAR
STARTCHAR U+00B4
ENCODING 180
SWIDTH 500 0
DWIDTH 8 0
BBX 8 16 0 -2
BITMAP 
00
04
08
10
00
00
00
00
00
00
00
00
00
00
00
00
ENDCHAR
STARTCHAR U+00B5
ENCODING 181
SWIDTH 500 0
DWIDTH 8 0
BBX 8 16 0 -2
BITMAP 
00
00
00
00
00
00
42
42
42
42
42
42
66
59
40
80
ENDCHAR
STARTCHAR U+00B6
ENCODING 182
SWIDTH 500 0
DWIDTH 8 0
BBX 8 16 0 -2
BITMAP 
00
00
00
3E
7A
7A
7A
7A
3A
0A
0A
0A
0A
0A
0E
00
ENDCHAR
STARTCHAR U+00B7
ENCODING 183
SWIDTH 500 0
DWIDTH 8 0
BBX 8 16 0 -2
BITMAP 
00
00
00
00
00
00
00
00
18
18
00
00
00
00
00
00
ENDCHAR
STARTCHAR U+00B8
ENCODING 184
SWIDTH 500 0
DWIDTH 8 0
BBX 8 16 0 -2
BITMAP 
00
00
00
00
00
00
00
00
00
00
00
00
00
00
08
30
ENDCHAR
STARTCHAR U+00B9
ENCODING 185
SWIDTH 500 0
DWIDTH 8 0
BBX 8 16 0 -2
BITMAP 
00
00
08
18
28
08
08
08
08
00
00
00
00
00
00
00
ENDCHAR
STARTCHAR U+00BA
ENCODING 186
SWIDTH 500 0
DWIDTH 8 0
BBX 8 16 0 -2
BITMAP 
00
00
1C
22
22
22
1C
00
3E
00
00
00
00
00
00
00
ENDCHAR
STARTCHAR U+00BB
ENCODING 187
SWIDTH 500 0
DWIDTH 8 0
BBX 8 16 0 -2
BITMAP 
00
00
00
00
00
48
48
24
24
12
24
24
48
48
00
00
ENDCHAR
STARTCHAR U+00BC
ENCODING 188
SWIDTH 500 0
DWIDTH 8 0
BBX 8 16 0 -2
BITMAP 
00
00
00
00
22
62
24
28
28
12
16
2A
4E
42
00
00
ENDCHAR
STARTCHAR U+00BD
ENCODING 189
SWIDTH 500 0
DWIDTH 8 0
BBX 8 16 0 -2
BITMAP 
00
00
00
00
22
62
24
28
28
14
1A
22
44
4E
00
00
ENDCHAR
STARTCHAR U+00BE
ENCODING 190
SWIDTH 500 0
DWIDTH 8 0
BBX 8 16 0 -2
BITMAP 
00
00
00
00
62
12
24
18
68
12
16
2A
4E
42
00
00
ENDCHAR
STARTCHAR U+00BF
ENCODING 191
SWIDTH 500 0
DWIDTH 8 0
BBX 8 16 0 -2
BITMAP 
00
00
00
00
08
08
00
08
08
30
42
42
42
3C
00
00
ENDCHAR
STARTCHAR U+00C0
ENCODING 192
SWIDTH 500 0
DWIDTH 8 0
BBX 8 16 0 -2
BITMAP 
30
0C
00
00
18
24
24
42
42
7E
42
42
42
42
00
00
ENDCHAR
STARTCHAR U+00C1
ENCODING 193
SWIDTH 500 0
DWIDTH 8 0
BBX 8 16 0 -2
BITMAP 
0C
30
00
00
18
24
24
42
42
7E
42
42
42
42
00
00
ENDCHAR
STARTCHAR U+00C2
ENCODING 194
SWIDTH 500 0
DWIDTH 8 0
BBX 8 16 0 -2
BITMAP 
18
24
00
00
18
24
24
42
42
7E
42
42
42
42
00
00
ENDCHAR
STARTCHAR U+00C3
ENCODING 195
SWIDTH 500 0
DWIDTH 8 0
BBX 8 16 0 -2
BITMAP 
32
4C
00
00
18
24
24
42
42
7E
42
42
42
42
00
00
ENDCHAR
STARTCHAR U+00C4
ENCODING 196
SWIDTH 500 0
DWIDTH 8 0
BBX 8 16 0 -2
BITMAP 
24
24
00
00
18
24
24
42
42
7E
42
42
42
42
00
00
ENDCHAR
STARTCHAR U+00C5
ENCODING 197
SWIDTH 500 0
DWIDTH 8 0
BBX 8 16 0 -2
BITMAP 
18
24
18
00
18
24
24
42
42
7E
42
42
42
42
00
00
ENDCHAR
STARTCHAR U+00C6
ENCODING 198
SWIDTH 500 0
DWIDTH 8 0
BBX 8 16 0 -2
BITMAP 
00
00
00
00
1F
28
48
48
7F
48
48
48
48
4F
00
00
ENDCHAR
STARTCHAR U+00C7
ENCODING 199
SWIDTH 500 0
DWIDTH 8 0
BBX 8 16 0 -2
BITMAP 
00
00
00
00
3C
42
42
40
40
40
40
42
42
3C
08
30
ENDCHAR
STARTCHAR U+00C8
ENCODING 200
SWIDTH 500 0
DWIDTH 8 0
BBX 8 16 0 -2
BITMAP 
30
0C
00
00
7E
40
40
40
7C
40
40
40
40
7E
00
00
ENDCHAR
STARTCHAR U+00C9
ENCODING 201
SWIDTH 500 0
DWIDTH 8 0
BBX 8 16 0 -2
BITMAP 
0C
30
00
00
7E
40
40
40
7C
40
40
40
40
7E
00
00
ENDCHAR
STARTCHAR U+00CA
ENCODING 202
SWIDTH 500 0
DWIDTH 8 0
BBX 8 16 0 -2
BITMAP 
18
24
00
00
7E
40
40
40
7C
40
40
40
40
7E
00
00
ENDCHAR
STARTCHAR U+00CB
ENCODING 203
SWIDTH 500 0
DWIDTH 8 0
BBX 8 16 0 -2
BITMAP 
24
24
00
00
7E
40
40
40
7C
40
40
40
40
7E
00
00
ENDCHAR
STARTCHAR U+00CC
ENCODING 204
SWIDTH 500 0
DWIDTH 8 0
BBX 8 16 0 -2
BITMAP 
18
06
00
00
3E
08
08
08
08
08
08
08
08
3E
00
00
ENDCHAR
STARTCHAR U+00CD
ENCODING 205
SWIDTH 500 0
DWIDTH 8 0
BBX 8 16 0 -2
BITMAP 
0C
30
00
00
3E
08
08
08
08
08
08
08
08
3E
00
00
ENDCHAR
STARTCHAR U+00CE
ENCODING 206
SWIDTH 500 0
DWIDTH 8 0
BBX 8 16 0 -2
BITMAP 
18
24
00
00
3E
08
08
08
08
08
08
08
08
3E
00
00
ENDCHAR
STARTCHAR U+00CF
ENCODING 207
SWIDTH 500 0
DWIDTH 8 0
BBX 8 16 0 -2
BITMAP 
24
24
00
00
3E
08
08
08
08
08
08
08
08
3E
00
00
ENDCHAR
STARTCHAR U+00D0
ENCODING 208
SWIDTH 500 0
DWIDTH 8 0
BBX 8 16 0 -2
BITMAP 
00
00
00
00
78
44
42
42
F2
42
42
42
44
78
00
00
ENDCHAR
STARTCHAR U+00D1
ENCODING 209
SWIDTH 500 0
DWIDTH 8 0
BBX 8 16 0 -2
BITMAP 
32
4C
00
00
42
62
62
52
52
4A
4A
46
46
42
00
00
ENDCHAR
STARTCHAR U+00D2
ENCODING 210
SWIDTH 500 0
DWIDTH 8 0
BBX 8 16 0 -2
BITMAP 
30
0C
00
00
3C
42
42
42
42
42
42
42
42
3C
00
00
ENDCHAR
STARTCHAR U+00D3
ENCODING 211
SWIDTH 500 0
DWIDTH 8 0
BBX 8 16 0 -2
BITMAP 
0C
30
00
00
3C
42
42
42
42
42
42
42
42
3C
00
00
ENDCHAR
STARTCHAR U+00D4
ENCODING 212
SWIDTH 500 0
DWIDTH 8 0
BBX 8 16 0 -2
BITMAP 
18
24
00
00
3C
42
42
42
42
42
42
42
42
3C
00
00
ENDCHAR
STARTCHAR U+00D5
ENCODING 213
SWIDTH 500 0
DWIDTH 8 0
BBX 8 16 0 -2
BITMAP 
32
4C
00
00
3C
42
42
42
42
42
42
42
42
3C
00
00
ENDCHAR
STARTCHAR U+00D6
ENCODING 214
SWIDTH 500 0
DWIDTH 8 0
BBX 8 16 0 -2
BITMAP 
24
24
00
00
3C
42
42
42
42
42
42
42
42
3C
00
00
ENDCHAR
STARTCHAR U+00D7
ENCODING 215
SWIDTH 500 0
DWIDTH 8 0
BBX 8 16 0 -2
BITMAP 
00
00
00
00
00
00
00
42
24
18
24
42
00
00
00
00
ENDCHAR
STARTCHAR U+00D8
ENCODING 216
SWIDTH 500 0
DWIDTH 8 0
BBX 8 16 0 -2
BITMAP 
00
00
00
02
3A
44
46
4A
4A
52
52
62
22
5C
40
00
ENDCHAR
STARTCHAR U+00D9
ENCODING 217
SWIDTH 500 0
DWIDTH 8 0
BBX 8 16 0 -2
BITMAP 
30
0C
00
00
42
42
42
42
42
42
42
42
42
3C
00
00
ENDCHAR
STARTCHAR U+00DA
ENCODING 218
SWIDTH 500 0
DWIDTH 8 0
BBX 8 16 0 -2
BITMAP 
0C
30
00
00
42
42
42
42
42
42
42
42
42
3C
00
00
ENDCHAR
STARTCHAR U+00DB
ENCODING 219
SWIDTH 500 0
DWIDTH 8 0
BBX 8 16 0 -2
BITMAP 
18
24
00
00
42
42
42
42
42
42
42
42
42
3C
00
00
ENDCHAR
STARTCHAR U+00DC
ENCODING 220
SWIDTH 500 0
DWIDTH 8 0
BBX 8 16 0 -2
BITMAP 
24
24
00
00
42
42
42
42
42
42
42
42
42
3C
00
00
ENDCHAR
STARTCHAR U+00DD
ENCODING 221
SWIDTH 500 0
DWIDTH 8 0
BBX 8 16 0 -2
BITMAP 
0C
30
00
00
41
41
22
22
14
08
08
08
08
08
00
00
ENDCHAR
STARTCHAR U+00DE
ENCODING 222
SWIDTH 500 0
DWIDTH 8 0
BBX 8 16 0 -2
BITMAP 
00
00
00
40
40
78
44
42
42
44
78
40
40
40
00
00
ENDCHAR
STARTCHAR U+00DF
ENCODING 223
SWIDTH 500 0
DWIDTH 8 0
BBX 8 16 0 -2
BITMAP 
00
00
00
00
38
44
44
48
58
44
42
42
52
4C
00
00
ENDCHAR
STARTCHAR U+00E0
ENCODING 224
SWIDTH 500 0
DWIDTH 8 0
BBX 8 16 0 -2
BITMAP 
00
00
30
0C
00
00
3C
42
02
3E
42
42
46
3A
00
00
ENDCHAR
STARTCHAR U+00E1
ENCODING 225
SWIDTH 500 0
DWIDTH 8 0
BBX 8 16 0 -2
BITMAP 
00
00
0C
30
00
00
3C
42
02
3E
42
42
46
3A
00
00
ENDCHAR
STARTCHAR U+00E2
ENCODING 226
SWIDTH 500 0
DWIDTH 8 0
BBX 8 16 0 -2
BITMAP 
00
00
18
24
00
00
3C
42
02
3E
42
42
46
3A
00
00
ENDCHAR
STARTCHAR U+00E3
ENCODING 227
SWIDTH 500 0
DWIDTH 8 0
BBX 8 16 0 -2
BITMAP 
00
00
32
4C
00
00
3C
42
02
3E
42
42
46
3A
00
00
ENDCHAR
STARTCHAR U+00E4
ENCODING 228
SWIDTH 500 0
DWIDTH 8 0
BBX 8 16 0 -2
BITMAP 
00
00
24
24
00
00
3C
42
02
3E
42
42
46
3A
00
00
ENDCHAR
STARTCHAR U+00E5
ENCODING 229
SWIDTH 500 0
DWIDTH 8 0
BBX 8 16 0 -2
BITMAP 
00
18
24
18
00
00
3C
42
02
3E
42
42
46
3A
00
00
ENDCHAR
STARTCHAR U+00E6
ENCODING 230
SWIDTH 500 0
DWIDTH 8 0
BBX 8 16 0 -2
BITMAP 
00
00
00
00
00
00
3E
49
09
3F
48
48
49
3E
00
00
ENDCHAR
STARTCHAR U+00E7
ENCODING 231
SWIDTH 500 0
DWIDTH 8 0
BBX 8 16 0 -2
BITMAP 
00
00
00
00
00
00
3C
42
40
40
40
40
42
3C
08
30
ENDCHAR
STARTCHAR U+00E8
ENCODING 232
SWIDTH 500 0
DWIDTH 8 0
BBX 8 16 0 -2
BITMAP 
00
00
30
0C
00
00
3C
42
42
7E
40
40
42
3C
00
00
ENDCHAR
STARTCHAR U+00E9
ENCODING 233
SWIDTH 500 0
DWIDTH 8 0
BBX 8 16 0 -2
BITMAP 
00
00
0C
30
00
00
3C
42
42
7E
40
40
42
3C
00
00
ENDCHAR
STARTCHAR U+00EA
ENCODING 234
SWIDTH 500 0
DWIDTH 8 0
BBX 8 16 0 -2
BITMAP 
00
00
18
24
00
00
3C
42
42
7E
40
40
42
3C
00
00
ENDCHAR
STARTCHAR U+00EB
ENCODING 235
SWIDTH 500 0
DWIDTH 8 0
BBX 8 16 0 -2
BITMAP 
00
00
24
24
00
00
3C
42
42
7E
40
40
42
3C
00
00
ENDCHAR
STARTCHAR U+00EC
ENCODING 236
SWIDTH 500 0
DWIDTH 8 0
BBX 8 16 0 -2
BITMAP 
00
00
30
0C
00
00
18
08
08
08
08
08
08
3E
00
00
ENDCHAR
STARTCHAR U+00ED
ENCODING 237
SWIDTH 500 0
DWIDTH 8 0
BBX 8 16 0 -2
BITMAP 
00
00
0C
30
00
00
18
08
08
08
08
08
08
3E
00
00
ENDCHAR
STARTCHAR U+00EE
ENCODING 238
SWIDTH 500 0
DWIDTH 8 0
BBX 8 16 0 -2
BITMAP 
00
00
18
24
00
00
18
08
08
08
08
08
08
3E
00
00
ENDCHAR
STARTCHAR U+00EF
ENCODING 239
SWIDTH 500 0
DWIDTH 8 0
BBX 8 16 0 -2
BITMAP 
00
00
24
24
00
00
18
08
08
08
08
08
08
3E
00
00
ENDCHAR
STARTCHAR U+00F0
ENCODING 240
SWIDTH 500 0
DWIDTH 8 0
BBX 8 16 0 -2
BITMAP 
00
00
32
0C
14
22
02
3E
42
42
42
42
42
3C
00
00
ENDCHAR
STARTCHAR U+00F1
ENCODING 241
SWIDTH 500 0
DWIDTH 8 0
BBX 8 16 0 -2
BITMAP 
00
00
32
4C
00
00
5C
62
42
42
42
42
42
42
00
00
ENDCHAR
STARTCHAR U+00F2
ENCODING 242
SWIDTH 500 0
DWIDTH 8 0
BBX 8 16 0 -2
BITMAP 
00
00
30
0C
00
00
3C
42
42
42
42
42
42
3C
00
00
ENDCHAR
STARTCHAR U+00F3
ENCODING 243
SWIDTH 500 0
DWIDTH 8 0
BBX 8 16 0 -2
BITMAP 
00
00
0C
30
00
00
3C
42
42
42
42
42
42
3C
00
00
ENDCHAR
STARTCHAR U+00F4
ENCODING 244
SWIDTH 500 0
DWIDTH 8 0
BBX 8 16 0 -2
BITMAP 
00
00
18
24
00
00
3C
42
42
42
42
42
42
3C
00
00
ENDCHAR
STARTCHAR U+00F5
ENCODING 245
SWIDTH 500 0
DWIDTH 8 0
BBX 8 16 0 -2
BITMAP 
00
00
32
4C
00
00
3C
42
42
42
42
42
42
3C
00
00
ENDCHAR
STARTCHAR U+00F6
ENCODING 246
SWIDTH 500 0
DWIDTH 8 0
BBX 8 16 0 -2
BITMAP 
00
00
24
24
00
00
3C
42
42
42
42
42
42
3C
00
00
ENDCHAR
STARTCHAR U+00F7
ENCODING 247
SWIDTH 500 0
DWIDTH 8 0
BBX 8 16 0 -2
BITMAP 
00
00
00
00
00
00
18
00
00
7E
00
00
18
00
00
00
ENDCHAR
STARTCHAR U+00F8
ENCODING 248
SWIDTH 500 0
DWIDTH 8 0
BBX 8 16 0 -2
BITMAP 
00
00
00
00
00
02
3C
46
4A
4A
52
52
62
3C
40
00
ENDCHAR
STARTCHAR U+00F9
ENCODING 249
SWIDTH 500 0
DWIDTH 8 0
BBX 8 16 0 -2
BITMAP 
00
00
30
0C
00
00
42
42
42
42
42
42
46
3A
00
00
ENDCHAR
STARTCHAR U+00FA
ENCODING 250
SWIDTH 500 0
DWIDTH 8 0
BBX 8 16 0 -2
BITMAP 
00
00
0C
30
00
00
42
42
42
42
42
42
46
3A
00
00
ENDCHAR
STARTCHAR U+00FB
ENCODING 251
SWIDTH 500 0
DWIDTH 8 0
BBX 8 16 0 -2
BITMAP 
00
00
18
24
00
00
42
42
42
42
42
42
46
3A
00
00
ENDCHAR
STARTCHAR U+00FC
ENCODING 252
SWIDTH 500 0
DWIDTH 8 0
BBX 8 16 0 -2
BITMAP 
00
00
24
24
00
00
42
42
42
42
42
42
46
3A
00
00
ENDCHAR
STARTCHAR U+00FD
ENCODING 253
SWIDTH 500 0
DWIDTH 8 0
BBX 8 16 0 -2
BITMAP 
00
00
0C
30
00
00
42
42
42
42
42
26
1A
02
02
3C
ENDCHAR
STARTCHAR U+00FE
ENCODING 254
SWIDTH 500 0
DWIDTH 8 0
BBX 8 16 0 -2
BITMAP 
00
00
00
00
20
20
3C
22
22
22
24
28
30
20
20
20
ENDCHAR
STARTCHAR U+00FF
ENCODING 255
SWIDTH 500 0
DWIDTH 8 0
BBX 8 16 0 -2
BITMAP 
00
00
24
24
00
00
42
42
42
42
42
26
1A
02
02
3C
ENDCHAR
ENDFONT
